<?xml version="1.0" encoding="utf-8"?>
<!-- Generator: Adobe Illustrator 17.0.2, SVG Export Plug-In . SVG Version: 6.00 Build 0)  -->
<!DOCTYPE svg PUBLIC "-//W3C//DTD SVG 1.1//EN" "http://www.w3.org/Graphics/SVG/1.1/DTD/svg11.dtd">
<svg version="1.1" id="Layer_1" xmlns="http://www.w3.org/2000/svg" xmlns:xlink="http://www.w3.org/1999/xlink" x="0px" y="0px"
	 width="140.52px" height="90px" viewBox="0 0 140.52 90" enable-background="new 0 0 140.52 90" xml:space="preserve">
<g>
	<path fill="#FFFFFF" d="M101.719,20.534c-10.12,0-14.3,10.23-14.3,24.97c0,14.74,4.18,24.86,14.3,24.86
		c10.23,0,14.19-10.01,14.19-24.86C115.909,30.874,111.839,20.534,101.719,20.534z"/>
	<path fill="#FFFFFF" d="M0,0v90.079h140.517V0H0z M60.91,83.125H42.32V34.944H26.15v-12.54c10.01-0.33,18.15-5.06,20.02-15.29
		h14.74V83.125z M101.61,84.885c-19.58,0-33.221-15.4-33.221-39.38s13.53-39.38,33.33-39.38c20.24,0,33.33,15.4,33.33,39.38
		S121.629,84.885,101.61,84.885z"/>
</g>
</svg>
