<?xml version="1.0" encoding="utf-8"?>
<!-- Generator: Adobe Illustrator 17.0.2, SVG Export Plug-In . SVG Version: 6.00 Build 0)  -->
<!DOCTYPE svg PUBLIC "-//W3C//DTD SVG 1.1//EN" "http://www.w3.org/Graphics/SVG/1.1/DTD/svg11.dtd">
<svg version="1.1" id="Layer_1" xmlns="http://www.w3.org/2000/svg" xmlns:xlink="http://www.w3.org/1999/xlink" x="0px" y="0px"
	 width="140.52px" height="90px" viewBox="0 0 140.52 90" enable-background="new 0 0 140.52 90" xml:space="preserve">
<path fill="#FFFFFF" d="M0,0v90.079h140.517V0H0z M69.823,83.125h-18.59v-48.18h-16.17v-12.54c10.01-0.33,18.15-5.06,20.021-15.29
	h14.74V83.125z M133.402,83.125H74.881c0.22-12.65,5.83-19.91,13.31-26.18c6.82-5.83,15.62-11.331,21.561-16.61
	c3.08-2.75,4.95-5.61,4.95-9.35c0-5.83-3.41-9.79-9.79-9.79c-3.521,0-6.271,1.1-8.141,3.41c-2.199,2.53-3.3,5.94-3.41,11.11h-17.38
	c0-8.8,1.54-14.19,5.17-19.14c4.29-6.16,12.431-10.34,24.2-10.34c18.15,0,27.94,10.78,27.94,24.09c0,10.45-5.83,16.5-12.54,21.669
	c-6.71,5.5-14.851,10.121-20.13,15.73v0.11h32.78V83.125z"/>
</svg>
