<?xml version="1.0" encoding="utf-8"?>
<!-- Generator: Adobe Illustrator 17.0.2, SVG Export Plug-In . SVG Version: 6.00 Build 0)  -->
<!DOCTYPE svg PUBLIC "-//W3C//DTD SVG 1.1//EN" "http://www.w3.org/Graphics/SVG/1.1/DTD/svg11.dtd">
<svg version="1.1" id="Layer_1" xmlns="http://www.w3.org/2000/svg" xmlns:xlink="http://www.w3.org/1999/xlink" x="0px" y="0px"
	 width="140.52px" height="90px" viewBox="0 0 140.52 90" enable-background="new 0 0 140.52 90" xml:space="preserve">
<path fill="#FFFFFF" d="M0.249-0.039v90.079h140.022V-0.039H0.249z M133.478,83.208H74.957c0.22-12.649,5.83-19.91,13.311-26.18
	c6.82-5.83,15.62-11.33,21.56-16.61c3.08-2.75,4.95-5.61,4.95-9.35c0-5.83-3.41-9.79-9.79-9.79c-3.52,0-6.27,1.1-8.14,3.41
	c-2.2,2.53-3.3,5.94-3.41,11.11h-17.38c0-8.8,1.54-14.19,5.17-19.14c4.29-6.16,12.43-10.34,24.2-10.34
	c18.149,0,27.94,10.78,27.94,24.09c0,10.45-5.83,16.5-12.541,21.67c-6.71,5.5-14.85,10.12-20.13,15.73v0.109h32.78V83.208z"/>
</svg>
