<?xml version="1.0" encoding="utf-8"?>
<!-- Generator: Adobe Illustrator 17.0.2, SVG Export Plug-In . SVG Version: 6.00 Build 0)  -->
<!DOCTYPE svg PUBLIC "-//W3C//DTD SVG 1.1//EN" "http://www.w3.org/Graphics/SVG/1.1/DTD/svg11.dtd">
<svg version="1.1" id="Layer_1" xmlns="http://www.w3.org/2000/svg" xmlns:xlink="http://www.w3.org/1999/xlink" x="0px" y="0px"
	 width="140.52px" height="90px" viewBox="0 0 140.52 90" enable-background="new 0 0 140.52 90" xml:space="preserve">
<path fill="#FFFFFF" d="M0.249-0.039v90.079h140.022V-0.039H0.249z M104.92,84.635c-10.67,0-18.48-2.529-23.761-7.26
	c-5.5-4.84-8.36-11.88-8.36-20.57H90.29c0.439,8.03,4.399,13.641,13.859,13.641c7.591,0,11.771-4.18,11.771-10.451
	c0-6.6-4.62-9.899-12.87-9.899h-4.51v-12.87h4.069c7.04,0,11.66-3.08,11.66-8.8c0-5.17-3.63-8.58-9.899-8.58
	c-8.03,0-11.551,5.06-11.99,11.55H75.11c0.33-14.96,10.78-25.41,29.48-25.41c16.61,0,27.94,7.92,27.94,21.23
	c0,7.7-4.73,12.43-11.44,15.07v0.22c8.25,2.53,13.64,8.36,13.64,18.479C134.73,77.154,120.76,84.635,104.92,84.635z"/>
</svg>
