<?xml version="1.0" encoding="utf-8"?>
<!-- Generator: Adobe Illustrator 17.0.2, SVG Export Plug-In . SVG Version: 6.00 Build 0)  -->
<!DOCTYPE svg PUBLIC "-//W3C//DTD SVG 1.1//EN" "http://www.w3.org/Graphics/SVG/1.1/DTD/svg11.dtd">
<svg version="1.1" id="Layer_1" xmlns="http://www.w3.org/2000/svg" xmlns:xlink="http://www.w3.org/1999/xlink" x="0px" y="0px"
	 width="140.52px" height="90px" viewBox="0 0 140.52 90" enable-background="new 0 0 140.52 90" xml:space="preserve">
<path fill="#FFFFFF" d="M0-0.039v90.079h140.022V-0.039H0z M104.995,84.114c-17.27,0-30.14-8.251-31.9-24.311h18.15
	c1.21,6.38,6.601,9.57,13.311,9.57c7.479,0,12.21-5.28,12.21-12.87c0-7.7-5.061-12.43-12.32-12.43c-4.84,0-8.8,2.089-10.78,4.62
	h-17.38l7.7-41.69h46.75v14.85H97.296l-2.641,13.42h0.22c2.75-2.53,7.811-4.51,14.631-4.51c14.41,0,25.96,9.9,25.96,25.85
	C135.466,73.334,123.035,84.114,104.995,84.114z"/>
</svg>
