<?xml version="1.0" encoding="utf-8"?>
<!-- Generator: Adobe Illustrator 17.0.2, SVG Export Plug-In . SVG Version: 6.00 Build 0)  -->
<!DOCTYPE svg PUBLIC "-//W3C//DTD SVG 1.1//EN" "http://www.w3.org/Graphics/SVG/1.1/DTD/svg11.dtd">
<svg version="1.1" id="Layer_1" xmlns="http://www.w3.org/2000/svg" xmlns:xlink="http://www.w3.org/1999/xlink" x="0px" y="0px"
	 width="140.52px" height="90px" viewBox="0 0 140.52 90" enable-background="new 0 0 140.52 90" xml:space="preserve">
<g>
	<path fill="#FFFFFF" d="M104.591,44.955c-8.03,0-13.09,5.61-13.09,13.2c0,7.48,5.39,12.87,13.09,12.87
		c7.59,0,12.98-5.5,12.98-12.87C117.572,50.675,112.181,44.955,104.591,44.955z"/>
	<path fill="#FFFFFF" d="M0-0.039v90.079h140.022V-0.039H0z M105.251,84.885c-22.11,0-33-16.39-33.11-38.83
		c-0.11-12.32,2.64-22.77,9.129-30.14c5.391-6.16,13.091-9.68,23.87-9.68c15.62,0,25.521,7.92,27.831,20.13h-17.711
		c-1.1-3.74-3.739-6.93-9.899-6.93c-9.24,0-14.301,6.93-14.851,19.03h0.221c4.069-4.29,9.13-7.15,17.27-7.15
		c14.521,0,27.17,10.56,27.17,26.73C135.171,74.104,122.522,84.885,105.251,84.885z"/>
</g>
</svg>
