<?xml version="1.0" encoding="utf-8"?>
<!-- Generator: Adobe Illustrator 17.0.2, SVG Export Plug-In . SVG Version: 6.00 Build 0)  -->
<!DOCTYPE svg PUBLIC "-//W3C//DTD SVG 1.1//EN" "http://www.w3.org/Graphics/SVG/1.1/DTD/svg11.dtd">
<svg version="1.1" id="Layer_1" xmlns="http://www.w3.org/2000/svg" xmlns:xlink="http://www.w3.org/1999/xlink" x="0px" y="0px"
	 width="140.52px" height="90px" viewBox="0 0 140.52 90" enable-background="new 0 0 140.52 90" xml:space="preserve">
<g>
	<path fill="#FFFFFF" d="M103.852,48.615c-7.811,0-13.2,4.51-13.2,11.221c0,6.6,5.28,10.779,13.09,10.779
		c7.7,0,12.98-4.29,12.98-10.779C116.722,53.124,111.772,48.615,103.852,48.615z"/>
	<path fill="#FFFFFF" d="M103.632,36.845c6.93,0,11.22-3.85,11.22-9.24c0-5.39-4.29-9.13-11.22-9.13c-6.931,0-11.11,3.74-11.11,9.13
		C92.522,32.994,96.701,36.845,103.632,36.845z"/>
	<path fill="#FFFFFF" d="M0,0v90.079h140.517V0H0z M103.852,84.365c-18.7,0-31.57-9.02-31.57-23.32c0-8.58,4.95-15.29,13.09-18.81
		v-0.33c-6.6-3.19-10.01-8.25-10.01-15.18c0-12.54,11-21.01,28.38-21.01c17.49,0,28.271,7.92,28.271,20.68
		c0,6.6-3.74,11.77-9.9,15.07v0.33c8.36,3.19,13.09,10.121,13.09,18.81C135.201,75.345,122.442,84.365,103.852,84.365z"/>
</g>
</svg>
