<?xml version="1.0" encoding="utf-8"?>
<!-- Generator: Adobe Illustrator 17.0.2, SVG Export Plug-In . SVG Version: 6.00 Build 0)  -->
<!DOCTYPE svg PUBLIC "-//W3C//DTD SVG 1.1//EN" "http://www.w3.org/Graphics/SVG/1.1/DTD/svg11.dtd">
<svg version="1.1" id="Layer_1" xmlns="http://www.w3.org/2000/svg" xmlns:xlink="http://www.w3.org/1999/xlink" x="0px" y="0px"
	 width="140.52px" height="90px" viewBox="0 0 140.52 90" enable-background="new 0 0 140.52 90" xml:space="preserve">
<g>
	<path fill="#FFFFFF" d="M102.863,19.485c-7.811,0-13.2,5.61-13.2,12.98c0,7.48,5.06,13.09,13.2,13.09
		c7.699,0,13.42-5.39,13.42-12.98S110.672,19.485,102.863,19.485z"/>
	<path fill="#FFFFFF" d="M0,0v90.079h140.517V0H0z M127.172,73.715c-5.39,6.93-13.2,10.67-24.2,10.67
		c-16.28,0-26.51-8.359-28.6-20.46h17.6c1.101,3.74,4.29,7.149,10.561,7.149c4.18,0,7.479-1.319,9.79-4.289
		c2.64-3.19,4.069-8.25,4.29-14.961h-0.221c-3.85,4.181-9.02,7.371-16.83,7.371c-15.18,0-27.5-10.451-27.5-26.621
		c0-16.06,12.76-26.84,30.36-26.84c9.35,0,17.38,3.08,22.66,8.47c6.71,6.49,9.9,16.5,9.9,30.25
		C134.983,56.115,132.563,66.675,127.172,73.715z"/>
</g>
</svg>
